<?xml version="1.0" encoding="utf-8"?>
<svg version="1.0" xmlns="http://www.w3.org/2000/svg" width="512.000000pt" height="512.000000pt" viewBox="0 0 512.000000 512.000000" preserveAspectRatio="xMidYMid meet">
  <g transform="translate(0.000000,512.000000) scale(0.100000,-0.100000)" fill="#000000" stroke="none">
    <path d="M1845 4948 c-44 -5 -131 -20 -194 -34 -574 -128 -1047 -503 -1301 -1029 -427 -884 -113 -1937 730 -2451 656 -399 1529 -351 2129 118 l63 50 61 -58 c34 -33 354 -351 712 -708 382 -381 663 -654 682 -662 99 -42 216 26 230 134 12 88 30 68 -729 828 l-709 711 64 86 c299 396 428 918 351 1417 -85 551 -406 1034 -887 1332 -342 213 -792 313 -1202 266z m520 -358 c211 -45 384 -117 560 -235 350 -234 584 -587 667 -1010 29 -145 31 -401 4 -550 -110 -619 -577 -1111 -1191 -1253 -776 -180 -1571 267 -1824 1023 -58 174 -74 281 -75 485 -1 211 14 317 70 489 81 248 195 432 384 621 259 260 562 406 940 454 87 11 367 -4 465 -24z" style="fill: rgb(255, 255, 255);"/>
    <path d="M1425 3786 c-85 -38 -126 -137 -91 -219 8 -18 118 -135 245 -262 127 -126 231 -234 231 -240 0 -5 -103 -113 -229 -240 -231 -231 -261 -270 -261 -334 0 -107 111 -191 213 -162 35 11 83 54 285 254 l242 241 248 -246 c236 -235 249 -247 293 -253 48 -7 105 10 143 43 35 32 59 99 51 151 -6 44 -17 56 -253 293 l-246 248 241 242 c202 203 243 250 254 286 29 99 -56 212 -161 212 -66 0 -103 -29 -337 -263 l-233 -231 -233 232 c-147 146 -247 237 -270 247 -44 18 -92 19 -132 1z" style="fill: rgb(255, 255, 255);"/>
  </g>
</svg>