<?xml version="1.0" encoding="utf-8"?>
<svg version="1.0" xmlns="http://www.w3.org/2000/svg" width="512.000000pt" height="512.000000pt" viewBox="0 0 512.000000 512.000000" preserveAspectRatio="xMidYMid meet">
  <g transform="translate(0.000000,512.000000) scale(0.100000,-0.100000)" fill="#000000" stroke="none">
    <path d="M883 4461 c-99 -34 -170 -99 -216 -198 l-22 -48 0 -1015 0 -1015 27 -57 c34 -73 103 -142 176 -176 54 -26 66 -27 244 -30 l186 -4 4 -186 c3 -178 4 -190 30 -244 34 -73 103 -142 176 -176 54 -26 66 -27 244 -30 l186 -4 4 -186 c3 -178 4 -190 30 -244 34 -73 103 -142 176 -176 l57 -27 1015 0 1015 0 67 33 c77 37 128 90 167 172 l26 55 0 1015 0 1015 -26 55 c-39 82 -90 135 -167 172 l-66 33 -187 3 -187 4 -4 186 c-3 177 -4 190 -29 242 -39 81 -90 134 -167 172 l-66 33 -187 3 -187 4 -4 186 c-3 177 -4 190 -29 242 -39 82 -90 134 -167 172 l-67 33 -1000 2 c-942 2 -1003 1 -1052 -16z m1985 -313 c8 -8 12 -58 12 -160 l0 -147 -667 -3 -668 -3 -57 -27 c-73 -34 -142 -103 -176 -176 l-27 -57 -3 -667 -3 -668 -147 0 c-102 0 -152 4 -160 12 -17 17 -17 1879 0 1896 17 17 1879 17 1896 0z m640 -640 c8 -8 12 -58 12 -160 l0 -147 -667 -3 -668 -3 -57 -27 c-73 -34 -142 -103 -176 -176 l-27 -57 -3 -667 -3 -668 -147 0 c-102 0 -152 4 -160 12 -17 17 -17 1879 0 1896 17 17 1879 17 1896 0z m640 -640 c17 -17 17 -1879 0 -1896 -17 -17 -1879 -17 -1896 0 -17 17 -17 1879 0 1896 17 17 1879 17 1896 0z" style="fill: rgb(255, 255, 255);"/>
  </g>
</svg>