<?xml version="1.0" encoding="utf-8"?>
<svg width="800px" height="800px" viewBox="0 0 24 24" id="_24x24_On_Light_Queue-Add" data-name="24x24/On Light/Queue-Add" xmlns="http://www.w3.org/2000/svg">
  <rect id="view-box" width="24" height="24" fill="none"/>
  <path id="Shape" d="M 3.75 19.5 C 1.679 19.5 0 17.821 0 15.75 L 0 6.607 C 0 5.167 1.167 4 2.607 4 L 4 4 L 4 2.75 C 4.002 1.232 5.232 0.002 6.75 0 L 16.75 0 C 18.268 0.002 19.498 1.232 19.5 2.75 L 19.5 12.75 C 19.499 14.268 18.268 15.499 16.75 15.5 L 15.5 15.5 L 15.5 16.893 C 15.5 18.333 14.332 19.501 12.892 19.5 L 3.75 19.5 Z M 1.5 6.607 L 1.5 15.75 C 1.5 16.993 2.507 18 3.75 18 L 12.892 18 C 13.504 18 13.999 17.505 14 16.893 L 14 15.5 L 6.75 15.5 C 5.232 15.498 4.002 14.268 4 12.75 L 4 5.5 L 2.607 5.5 C 1.996 5.5 1.5 5.996 1.5 6.607 Z M 5.5 2.75 L 5.5 12.75 C 5.501 13.44 6.06 13.999 6.75 14 L 16.75 14 C 17.44 13.999 17.999 13.44 18 12.75 L 18 2.75 C 17.999 2.06 17.44 1.501 16.75 1.5 L 6.75 1.5 C 6.06 1.501 5.501 2.06 5.5 2.75 Z" transform="translate(2.25 2.25)" style="fill: rgb(245, 61, 61);"/>
</svg>