<svg width="24" height="23" viewBox="0 0 24 23" fill="none" xmlns="http://www.w3.org/2000/svg">
<path d="M16 18.5C15.1667 18.5 14.4583 18.2083 13.875 17.625C13.2917 17.0417 13 16.3333 13 15.5C13 14.6667 13.2917 13.9583 13.875 13.375C14.4583 12.7917 15.1667 12.5 16 12.5C16.1833 12.5 16.3583 12.5125 16.525 12.5375C16.6917 12.5625 16.85 12.6167 17 12.7V4.5H22V6.5H19V15.5C19 16.3333 18.7083 17.0417 18.125 17.625C17.5417 18.2083 16.8333 18.5 16 18.5ZM3 14.5V12.5H11V14.5H3ZM3 10.5V8.5H15V10.5H3ZM3 6.5V4.5H15V6.5H3Z" fill="white"/>
</svg>
